<?xml version="1.0" encoding="utf-8"?>
<!-- Generator: Adobe Illustrator 23.0.5, SVG Export Plug-In . SVG Version: 6.00 Build 0)  -->
<svg version="1.1" id="Layer_1" xmlns="http://www.w3.org/2000/svg" xmlns:xlink="http://www.w3.org/1999/xlink" x="0px" y="0px"
	 viewBox="0 0 1080 3365.5" style="enable-background:new 0 0 1080 3365.5;" xml:space="preserve">
<style type="text/css">
	.st0{fill:url(#SVGID_1_);}
	.st1{fill:url(#SVGID_2_);}
	.st2{fill:#02172F;}
	.st3{fill:url(#SVGID_3_);}
	.st4{fill:url(#SVGID_4_);}
	.st5{fill:url(#SVGID_5_);}
	.st6{fill:#93857C;}
	.st7{fill:url(#SVGID_6_);}
	.st8{fill:#DBC1AA;}
	.st9{fill:#FCFAF9;}
	.st10{fill:url(#SVGID_7_);}
	.st11{fill:url(#SVGID_8_);}
	.st12{fill:url(#SVGID_9_);}
	.st13{fill:url(#SVGID_10_);}
	.st14{fill:none;}
	.st15{fill:url(#SVGID_11_);}
</style>
<g id="Layer_26">
	
		<linearGradient id="SVGID_1_" gradientUnits="userSpaceOnUse" x1="563.0062" y1="155.1676" x2="563.0062" y2="103.1767" gradientTransform="matrix(1 -8.885610e-04 8.885610e-04 1 -1.5001 0.4601)">
		<stop  offset="0" style="stop-color:#FFFFFF"/>
		<stop  offset="9.255467e-02" style="stop-color:#DBDADC"/>
		<stop  offset="0.2059" style="stop-color:#B5B3B7"/>
		<stop  offset="0.3184" style="stop-color:#97959B"/>
		<stop  offset="0.4284" style="stop-color:#827F86"/>
		<stop  offset="0.5346" style="stop-color:#75727A"/>
		<stop  offset="0.6328" style="stop-color:#716E76"/>
	</linearGradient>
	<path class="st0" d="M588.7,112.2l0,6.2l27.6,32.8l1.9,0l0-1.7L588.7,112.2z M505,149.6l0,1.7l1.9,0l27.6-32.8l0-6.2L505,149.6z"/>
	
		<linearGradient id="SVGID_2_" gradientUnits="userSpaceOnUse" x1="563.0062" y1="-1909.0939" x2="563.0062" y2="1197.5758" gradientTransform="matrix(1 -8.885610e-04 -8.885610e-04 -1 -0.2348 1424.4713)">
		<stop  offset="0.5955" style="stop-color:#FEFDFE"/>
		<stop  offset="0.7867" style="stop-color:#FEFCFC"/>
		<stop  offset="0.8556" style="stop-color:#FDF9F5"/>
		<stop  offset="0.9047" style="stop-color:#FBF4EA"/>
		<stop  offset="0.9444" style="stop-color:#F9EDD9"/>
		<stop  offset="0.978" style="stop-color:#F6E4C3"/>
		<stop  offset="1" style="stop-color:#F3DCB0"/>
	</linearGradient>
	<polygon class="st1" points="648.4,3365.4 480.6,3365.6 549.1,189.6 559.9,189.6 561.7,235.3 563.6,189.6 574.5,189.6 	"/>
	<polygon class="st2" points="618.2,151.2 618.3,193.9 588.1,155.8 588.7,118.4 616.3,151.2 	"/>
	<polygon class="st2" points="535.1,155.9 505.1,194 505,151.3 506.9,151.2 534.5,118.4 	"/>
	
		<linearGradient id="SVGID_3_" gradientUnits="userSpaceOnUse" x1="563.1076" y1="1249.9673" x2="563.1076" y2="1428.1658" gradientTransform="matrix(1 -8.885610e-04 -8.885610e-04 -1 -0.2348 1424.4713)">
		<stop  offset="0" style="stop-color:#41475C"/>
		<stop  offset="3.879219e-02" style="stop-color:#36425A"/>
		<stop  offset="0.109" style="stop-color:#2B3D57"/>
		<stop  offset="0.2079" style="stop-color:#243A55"/>
		<stop  offset="0.4824" style="stop-color:#223955"/>
		<stop  offset="0.7265" style="stop-color:#243A56"/>
		<stop  offset="0.8144" style="stop-color:#2B3F59"/>
		<stop  offset="0.8771" style="stop-color:#36475E"/>
		<stop  offset="0.9277" style="stop-color:#475265"/>
		<stop  offset="0.9706" style="stop-color:#5D616E"/>
		<stop  offset="1" style="stop-color:#716E76"/>
	</linearGradient>
	<path class="st3" d="M588.7,77.8l0,40.6l-0.6,37.4l-5.2,12.5l-2.5,6l-37.4,0l-2.5-6l-5.3-12.5l-0.5-37.4l0-40.6
		c0,0-1.2-8.7,4.4-33.1C544.6,20.2,561.6,0,561.6,0s17,20.3,22.7,44.7C589.9,69.2,588.7,77.8,588.7,77.8z"/>
	
		<linearGradient id="SVGID_4_" gradientUnits="userSpaceOnUse" x1="592.8704" y1="1256.1742" x2="618.4224" y2="1231.761" gradientTransform="matrix(1 -8.885610e-04 -8.885610e-04 -1 -0.2348 1424.4713)">
		<stop  offset="0" style="stop-color:#41475C"/>
		<stop  offset="0.1289" style="stop-color:#584F61"/>
		<stop  offset="0.4002" style="stop-color:#825F69"/>
		<stop  offset="0.6454" style="stop-color:#A16B70"/>
		<stop  offset="0.8536" style="stop-color:#B37274"/>
		<stop  offset="1" style="stop-color:#BA7475"/>
	</linearGradient>
	<polygon class="st4" points="618.3,193.9 616.1,197.8 582.9,168.3 588.1,155.8 	"/>
	
		<linearGradient id="SVGID_5_" gradientUnits="userSpaceOnUse" x1="535.158" y1="1257.5012" x2="511.2993" y2="1231.4305" gradientTransform="matrix(1 -8.885610e-04 -8.885610e-04 -1 -0.2348 1424.4713)">
		<stop  offset="0" style="stop-color:#41475C"/>
		<stop  offset="0.3373" style="stop-color:#6E5865"/>
		<stop  offset="0.7833" style="stop-color:#A56C71"/>
		<stop  offset="1" style="stop-color:#BA7475"/>
	</linearGradient>
	<polygon class="st5" points="540.5,168.3 507.3,197.8 505.1,194 535.1,155.9 	"/>
	<polygon class="st6" points="563.6,189.6 561.7,204.8 559.9,189.6 561.7,197.8 	"/>
	
		<linearGradient id="SVGID_6_" gradientUnits="userSpaceOnUse" x1="559.3063" y1="1261.0204" x2="566.7263" y2="1261.0204" gradientTransform="matrix(1 -8.885610e-04 -8.885610e-04 -1 -0.2348 1424.4713)">
		<stop  offset="0" style="stop-color:#D4AE96"/>
		<stop  offset="0.4975" style="stop-color:#FFF7E9"/>
		<stop  offset="1" style="stop-color:#D4AE96"/>
	</linearGradient>
	<path class="st7" d="M565.3,133.3l0,48l-1.3,5.7l-0.6,2.7l-1.9,8.2l-1.8-8.2l-0.6-2.6l0,0l-1.3-5.7l0-48c2.8-1.2,3.7-5.4,3.7-5.4
		S562.5,132.1,565.3,133.3z"/>
	<path class="st2" d="M579.9,52.7l0.1,110.1c-1.6,1.6-2.4,2.4-4,4l-10.6,0l0-33.5c-2.8-1.2-3.7-5.4-3.7-5.4s-0.9,4.2-3.7,5.4l0,33.5
		l-10.6,0c-1.6-1.6-2.4-2.4-4-4l-0.1-110.1c0,0,1.6-28.2,18.3-46.8C578.2,24.5,579.9,52.7,579.9,52.7z"/>
	<path class="st8" d="M561.5,41.5c-6.8,0-12.2,5.5-12.2,12.2c0,6.8,5.5,12.2,12.2,12.2c6.8,0,12.2-5.5,12.2-12.2
		C573.7,47,568.3,41.5,561.5,41.5z M561.6,64c-5.6,0-10.2-4.6-10.2-10.2c0-5.6,4.6-10.2,10.2-10.2c5.6,0,10.2,4.6,10.2,10.2
		C571.8,59.4,567.2,64,561.6,64z"/>
	<path class="st9" d="M571.8,53.8c0,5.6-4.6,10.2-10.2,10.2c-5.6,0-10.2-4.6-10.2-10.2c0-5.6,4.6-10.2,10.2-10.2
		C567.1,43.5,571.7,48.1,571.8,53.8z"/>
	
		<linearGradient id="SVGID_7_" gradientUnits="userSpaceOnUse" x1="584.2062" y1="1255.6703" x2="584.2062" y2="1255.6703" gradientTransform="matrix(1 -8.885610e-04 -8.885610e-04 -1 -0.2348 1424.4713)">
		<stop  offset="0" style="stop-color:#223955"/>
		<stop  offset="0.4716" style="stop-color:#243A56"/>
		<stop  offset="0.6414" style="stop-color:#2B3F59"/>
		<stop  offset="0.7625" style="stop-color:#36475E"/>
		<stop  offset="0.8603" style="stop-color:#475265"/>
		<stop  offset="0.9432" style="stop-color:#5D616E"/>
		<stop  offset="1" style="stop-color:#716E76"/>
	</linearGradient>
	<path class="st10" d="M582.9,168.3L582.9,168.3z"/>
	
		<linearGradient id="SVGID_8_" gradientUnits="userSpaceOnUse" x1="541.8063" y1="1255.6703" x2="541.8063" y2="1255.6703" gradientTransform="matrix(1 -8.885610e-04 -8.885610e-04 -1 -0.2348 1424.4713)">
		<stop  offset="0" style="stop-color:#223955"/>
		<stop  offset="0.4716" style="stop-color:#243A56"/>
		<stop  offset="0.6414" style="stop-color:#2B3F59"/>
		<stop  offset="0.7625" style="stop-color:#36475E"/>
		<stop  offset="0.8603" style="stop-color:#475265"/>
		<stop  offset="0.9432" style="stop-color:#5D616E"/>
		<stop  offset="1" style="stop-color:#716E76"/>
	</linearGradient>
	<path class="st11" d="M540.5,168.3L540.5,168.3z"/>
	
		<linearGradient id="SVGID_9_" gradientUnits="userSpaceOnUse" x1="541.8063" y1="1255.6703" x2="541.8063" y2="1255.6703" gradientTransform="matrix(1 -8.885610e-04 -8.885610e-04 -1 -0.2348 1424.4713)">
		<stop  offset="0" style="stop-color:#223955"/>
		<stop  offset="0.4716" style="stop-color:#243A56"/>
		<stop  offset="0.6414" style="stop-color:#2B3F59"/>
		<stop  offset="0.7625" style="stop-color:#36475E"/>
		<stop  offset="0.8603" style="stop-color:#475265"/>
		<stop  offset="0.9432" style="stop-color:#5D616E"/>
		<stop  offset="1" style="stop-color:#716E76"/>
	</linearGradient>
	<path class="st12" d="M540.5,168.3L540.5,168.3z"/>
	
		<linearGradient id="SVGID_10_" gradientUnits="userSpaceOnUse" x1="581.7062" y1="1249.6703" x2="581.7062" y2="1249.6703" gradientTransform="matrix(1 -8.885610e-04 -8.885610e-04 -1 -0.2348 1424.4713)">
		<stop  offset="0" style="stop-color:#223955"/>
		<stop  offset="0.4716" style="stop-color:#243A56"/>
		<stop  offset="0.6414" style="stop-color:#2B3F59"/>
		<stop  offset="0.7625" style="stop-color:#36475E"/>
		<stop  offset="0.8603" style="stop-color:#475265"/>
		<stop  offset="0.9432" style="stop-color:#5D616E"/>
		<stop  offset="1" style="stop-color:#716E76"/>
	</linearGradient>
	<path class="st13" d="M580.4,174.3L580.4,174.3z"/>
	<line class="st14" x1="559.3" y1="186.9" x2="559.3" y2="186.9"/>
	
		<linearGradient id="SVGID_11_" gradientUnits="userSpaceOnUse" x1="563.0062" y1="189.7595" x2="563.0062" y2="152.3495" gradientTransform="matrix(1 -8.885610e-04 8.885610e-04 1 -1.5001 0.4601)">
		<stop  offset="5.730721e-02" style="stop-color:#41475C"/>
		<stop  offset="0.14" style="stop-color:#44485D"/>
		<stop  offset="0.2059" style="stop-color:#4E4C5F"/>
		<stop  offset="0.2661" style="stop-color:#5F5262"/>
		<stop  offset="0.3224" style="stop-color:#765B67"/>
		<stop  offset="0.3296" style="stop-color:#7A5C68"/>
		<stop  offset="0.3533" style="stop-color:#88616B"/>
		<stop  offset="0.4228" style="stop-color:#AC6F72"/>
		<stop  offset="0.4598" style="stop-color:#BA7475"/>
	</linearGradient>
	<path class="st15" d="M580.4,174.3l-6,15.3l-10.9,0l0.6-2.7l1.3-5.7l0-7L580.4,174.3L580.4,174.3z M580.4,174.3l-6,15.3
		 M559.3,186.9L559.3,186.9l-1.3-5.7l0-7l-15,0l6.2,15.3l10.6,0L559.3,186.9z M549.3,189.6l-6.2-15.3"/>
</g>
</svg>
