<?xml version="1.0" encoding="utf-8"?>
<!-- Generator: Adobe Illustrator 23.0.5, SVG Export Plug-In . SVG Version: 6.00 Build 0)  -->
<svg version="1.1" xmlns="http://www.w3.org/2000/svg" xmlns:xlink="http://www.w3.org/1999/xlink" x="0px" y="0px"
	 viewBox="0 0 802.5 802.8" style="enable-background:new 0 0 802.5 802.8;" xml:space="preserve">
<style type="text/css">
	.st0{fill:none;stroke:url(#SVGID_1_);stroke-width:71;stroke-miterlimit:10;}
	.st1{fill:#0F1B32;}
	.st2{display:none;}
	.st3{display:inline;fill:none;stroke:#111E32;stroke-width:35;stroke-miterlimit:10;}
	.st4{fill:#FFFFFF;}
	.st5{fill:url(#SVGID_2_);}
	.st6{fill:url(#SVGID_3_);}
	.st7{fill:none;stroke:#4C76A6;stroke-width:7;stroke-linecap:round;stroke-miterlimit:10;}
	.st8{fill:none;stroke:#4C76A6;stroke-width:7;stroke-miterlimit:10;}
	.st9{fill:none;stroke:#4C76A6;stroke-width:7;stroke-linecap:round;stroke-linejoin:round;stroke-miterlimit:10;}
	.st10{fill:none;stroke:#4C76A6;stroke-width:3;stroke-linejoin:round;stroke-miterlimit:10;}
	.st11{fill:#4C76A6;}
	.st12{fill:none;stroke:#4F77A2;stroke-width:7;stroke-linecap:round;stroke-linejoin:round;stroke-miterlimit:10;}
	.st13{fill:#73BEDF;}
	.st14{fill:none;stroke:#73BEDF;stroke-width:9;stroke-linecap:round;stroke-linejoin:round;stroke-miterlimit:10;}
	.st15{fill:none;stroke:#73BEDF;stroke-width:11;stroke-linecap:round;stroke-linejoin:round;stroke-miterlimit:10;}
	.st16{fill:none;stroke:#73BEDF;stroke-width:11;stroke-linejoin:round;stroke-miterlimit:10;}
	.st17{fill:none;stroke:#73BEDF;stroke-width:11;stroke-miterlimit:10;}
	.st18{fill:#DC812E;}
	.st19{fill:none;stroke:#DC812E;stroke-width:9;stroke-linecap:round;stroke-miterlimit:10;}
	.st20{fill:none;stroke:#DC812E;stroke-width:9;stroke-linecap:round;stroke-linejoin:round;stroke-miterlimit:10;}
</style>
<g id="Layer_4">
	<g>
		<linearGradient id="SVGID_1_" gradientUnits="userSpaceOnUse" x1="401.1073" y1="5.5267" x2="401.1073" y2="803.2475">
			<stop  offset="0" style="stop-color:#FFFFFF"/>
			<stop  offset="1" style="stop-color:#D5EFFB"/>
		</linearGradient>
		<circle class="st0" cx="401.1" cy="404.4" r="363.4"/>
		<circle class="st1" cx="401.1" cy="404.4" r="363.4"/>
	</g>
</g>
<g id="Layer_7" class="st2">
	<circle class="st3" cx="401.1" cy="405.9" r="412.7"/>
</g>
<g id="Layer_6">
	<g>
		<rect x="83.8" y="319.6" class="st4" width="143.1" height="36.4"/>
		<linearGradient id="SVGID_2_" gradientUnits="userSpaceOnUse" x1="152.0347" y1="353.201" x2="152.0347" y2="539.0271">
			<stop  offset="0" style="stop-color:#FFFFFF"/>
			<stop  offset="1" style="stop-color:#D5EFFB"/>
		</linearGradient>
		<rect x="135.1" y="353.2" class="st5" width="34" height="185.8"/>
	</g>
	<g>
		<rect x="375.1" y="318.9" class="st4" width="143.1" height="36.4"/>
		<linearGradient id="SVGID_3_" gradientUnits="userSpaceOnUse" x1="443.3632" y1="352.5517" x2="443.3632" y2="538.3778">
			<stop  offset="0" style="stop-color:#FFFFFF"/>
			<stop  offset="1" style="stop-color:#D5EFFB"/>
		</linearGradient>
		<rect x="426.4" y="352.6" class="st6" width="34" height="185.8"/>
	</g>
	<path class="st4" d="M390.9,538.1L310,319.2h-15.8l-79.5,218.9 M302.8,402.3l28.6,75.7h-57.1L302.8,402.3z M252.3,538.1l4.1-11.9
		l5-14.5h82.1l8.5,26.4"/>
	<rect x="621.4" y="319.6" class="st4" width="33.5" height="218.5"/>
	<rect x="518.2" y="383.8" class="st4" width="193.2" height="36.5"/>
	<polygon class="st4" points="518.2,446.1 556,424.7 556,356 518.2,375.4 	"/>
	<path class="st1" d="M351.6,537.9L351.6,537.9C351.6,537.9,351.6,537.9,351.6,537.9C351.6,537.8,351.6,537.8,351.6,537.9
		C351.6,537.8,351.6,537.8,351.6,537.9c-0.5-1-1.6-1.6-2.8-0.9c-0.5,0.3-1.3-0.4-1.8-0.7c-0.9-0.5-1.9-0.9-2.9-1.2
		c-2.2-0.6-4.5-0.8-6.7-0.8c-4.5,0-9,1.4-13.4,0.9c-0.6-0.1-1.1,0.2-1.5,0.7c0,0,0,0,0,0c-2.8-0.3-5.7-0.6-8.5-0.3
		c-1.4,0.2-2.8,0.5-4.2,0.6c-1.4,0.1-2.9,0.1-4.3,0c-2.8-0.1-5.6-0.2-8.4-0.1c-2.9,0.1-5.8,0.2-8.7-0.3c-0.5-0.1-0.9,0-1.2,0.1
		c0,0-0.1,0-0.1,0c-2-0.4-3.9-0.4-5.9-0.4c-2,0-4.1,0-6.1,0c-4.1,0-8.2,0.1-12.3,0.1c-0.8,0-1.4,0.4-1.7,1c0,0,0,0,0,0
		c-0.8-1.1-2.1-1.9-3.9-1.9c-0.8,0-1.6,0.2-2.2,0.5c-0.2,0.1-0.4,0.2-0.6,0.4c0,0,0,0,0,0c-2.7,1.9-2.7,6.5,0,8.4
		c0.8,1,2,1.7,3.7,1.7c3.6,0,5.2-3.1,4.7-5.9c0,0,0,0,0,0c3.9,0,7.9,0,11.8-0.1c1.9,0,3.8,0,5.7,0c1.9,0,3.9-0.2,5.8,0.2
		c0.5,0.1,0.9,0.1,1.3-0.1c0,0,0.1,0,0.1,0c5.8,1.1,11.8,0.2,17.7,0.5c3,0.2,5.7-0.1,8.6-0.6c3-0.4,6-0.1,8.9,0.2
		c0.6,0.1,1.1-0.2,1.5-0.7c0,0,0,0,0,0c2.4,0.3,4.8-0.1,7.1-0.4c2.4-0.3,4.8-0.5,7.2-0.5c2.2,0.1,4.6,0.3,6.6,1.3c2,1,3.9,2,6,0.8
		c0.8-0.5,1-1.2,0.9-1.9C351.9,538.3,351.8,538,351.6,537.9z"/>
</g>
<g id="Layer_5">
	<line class="st7" x1="482.3" y1="383.8" x2="482.3" y2="503.3"/>
	<line class="st7" x1="510.2" y1="484" x2="510.2" y2="587.4"/>
	<line class="st7" x1="380.7" y1="171.5" x2="396.1" y2="185.5"/>
	<polyline class="st7" points="502.7,96.7 510,103.6 510,138.9 	"/>
	<line class="st7" x1="625.1" y1="200.5" x2="585.9" y2="241.7"/>
	<line class="st7" x1="582.3" y1="324.1" x2="582.3" y2="359.7"/>
	<line class="st7" x1="407.3" y1="385.7" x2="407.3" y2="498"/>
	<line class="st8" x1="191.4" y1="401.9" x2="191.4" y2="506.2"/>
	<polyline class="st9" points="87.6,401.9 114.3,401.9 115.8,563.5 161.5,563.5 198.2,599.5 279.4,599.5 	"/>
	<line class="st10" x1="334.1" y1="320.7" x2="357.7" y2="385.7"/>
	<line class="st10" x1="263.5" y1="348.6" x2="242.4" y2="412.1"/>
	<circle class="st11" cx="591.9" cy="191.6" r="6.1"/>
	<circle class="st11" cx="504" cy="235.6" r="6.1"/>
	<circle class="st11" cx="690" cy="313.7" r="6.1"/>
	<circle class="st11" cx="189.6" cy="657.2" r="6.1"/>
	<circle class="st11" cx="208.3" cy="222.4" r="6.1"/>
	
		<rect x="125.6" y="221.1" transform="matrix(0.5583 -0.8296 0.8296 0.5583 -130.2234 209.2819)" class="st11" width="11.7" height="11.7"/>
	
		<rect x="657.2" y="197.2" transform="matrix(0.7635 -0.6458 0.6458 0.7635 25.6912 476.1994)" class="st11" width="11.7" height="11.7"/>
	
		<rect x="600.4" y="257.7" transform="matrix(0.7635 -0.6458 0.6458 0.7635 -27.5192 455.3323)" class="st11" width="15.1" height="15.1"/>
	
		<rect x="258.4" y="561.2" transform="matrix(0.7635 -0.6458 0.6458 0.7635 -303.8455 305.0018)" class="st11" width="12.4" height="12.4"/>
	
		<rect x="590.7" y="130.1" transform="matrix(0.7635 -0.6458 0.6458 0.7635 53.8964 416.0925)" class="st11" width="8.7" height="8.7"/>
	<polyline class="st7" points="615.3,565.5 690.4,565.5 690.4,443.6 	"/>
	<polyline class="st7" points="711,540.8 711,462.4 736.1,448.7 	"/>
	<line class="st7" x1="729.8" y1="493.3" x2="729.8" y2="471.8"/>
	<line class="st7" x1="204.5" y1="565.5" x2="233.7" y2="565.5"/>
	<polyline class="st12" points="349.7,169.8 349.7,120.5 345.9,115 	"/>
</g>
<g id="Layer_2">
	<path class="st13" d="M315.5,165.6v-10.9l-11.1-3.3c-1.2-3.8-1.7-5.1-2.9-8.9l7.1-9.2c-3.3-4.6-3.1-4.2-6.4-8.8l-10.9,3.9
		c-3.2-2.3-4.4-3.2-7.6-5.5l0.3-11.6c-5.4-1.8-5-1.6-10.4-3.4l-6.5,9.6h-9.4l-6.6-9.6c-5.4,1.8-5,1.6-10.4,3.4l0.3,11.6
		c-3.2,2.3-4.4,3.2-7.6,5.5l-10.9-3.9c-3.3,4.6-3.1,4.2-6.4,8.8l7.1,9.2c-1.2,3.8-1.7,5.1-2.9,8.9l-11.1,3.3c0,5.7,0,5.2,0,10.9
		l11.1,3.3c1.2,3.8,1.7,5.1,2.9,8.9l-7.1,9.2c3.3,4.6,3.1,4.2,6.4,8.8l10.9-3.9c3.2,2.3,4.4,3.2,7.6,5.5l-0.3,11.6
		c5.4,1.8,5,1.6,10.4,3.4l6.5-9.6c4,0,5.4,0,9.4,0l6.5,9.6c5.4-1.8,5-1.6,10.4-3.4l-0.3-11.6c3.2-2.4,4.4-3.2,7.6-5.5l10.9,3.9
		c3.3-4.6,3.1-4.2,6.4-8.8l-7.1-9.2c1.2-3.8,1.7-5.1,2.9-8.9L315.5,165.6z M264.7,189.7c-18.3,1.4-33.4-13.7-32-32
		c1.1-14.4,12.8-26,27.2-27.2c18.3-1.4,33.4,13.7,32,32C290.7,176.9,279.1,188.6,264.7,189.7z"/>
	<circle class="st13" cx="305.3" cy="91.2" r="7.4"/>
	<circle class="st13" cx="375.1" cy="140" r="11.6"/>
	<circle class="st13" cx="410.2" cy="77.7" r="8.8"/>
	<circle class="st13" cx="410.2" cy="130.5" r="8.8"/>
	<circle class="st13" cx="405.4" cy="166.4" r="8.8"/>
	<circle class="st13" cx="404" cy="221.2" r="7.3"/>
	<circle class="st13" cx="561.5" cy="123.2" r="16.1"/>
	<circle class="st13" cx="643.8" cy="238.5" r="16.1"/>
	<circle class="st13" cx="724" cy="321.8" r="8.1"/>
	<circle class="st13" cx="230.4" cy="669.4" r="15.9"/>
	<circle class="st13" cx="146.4" cy="606.3" r="15.9"/>
	<circle class="st13" cx="402.7" cy="669.4" r="13.9"/>
	<circle class="st13" cx="621.4" cy="632.1" r="15.2"/>
	<circle class="st13" cx="402.7" cy="606.3" r="7.7"/>
	<circle class="st13" cx="506" cy="625.9" r="6.3"/>
	<circle class="st13" cx="589.4" cy="673.9" r="7.6"/>
	<circle class="st13" cx="273" cy="658.3" r="5.9"/>
	<circle class="st13" cx="208.3" cy="405.9" r="8.2"/>
	<circle class="st13" cx="212.5" cy="434.4" r="5.8"/>
	<circle class="st13" cx="172.2" cy="264.7" r="7.2"/>
	<circle class="st13" cx="402.7" cy="730.9" r="7.7"/>
	<circle class="st13" cx="434.3" cy="705.3" r="7.7"/>
	<polyline class="st14" points="562.1,132.9 563.3,208.1 509.5,262.4 509.5,297.2 	"/>
	<polyline class="st14" points="414.2,82.6 427.3,95.8 427.3,112.2 414.2,128.2 	"/>
	<polyline class="st14" points="410.2,165.2 438.7,184 438.7,212.4 	"/>
	<polyline class="st14" points="724,321.8 690,352.6 690,364.1 	"/>
	<polyline class="st15" points="621.4,632.1 581.8,593.1 581.8,446 	"/>
	<line class="st15" x1="402.7" y1="606.3" x2="402.7" y2="730.9"/>
	<line class="st16" x1="83.8" y1="294.3" x2="226.9" y2="294.3"/>
	<line class="st16" x1="534" y1="294.3" x2="711.4" y2="294.3"/>
	<line class="st15" x1="438.7" y1="254.6" x2="438.7" y2="297.2"/>
	<polyline class="st17" points="146.4,606.3 179.8,627.4 288.2,630.4 299.7,641 299.7,659.7 325.9,684.2 362.6,685.3 	"/>
	<polyline class="st15" points="487.1,565.5 302.8,565.5 302.8,533.5 	"/>
	<line class="st15" x1="172.2" y1="264.7" x2="158" y2="254.6"/>
	<line class="st15" x1="384.7" y1="117.8" x2="376.7" y2="136.6"/>
</g>
<g id="Layer_3">
	<path class="st18" d="M356.3,75.7c-7.5,0-13.5,6.1-13.5,13.5s6,13.5,13.5,13.5c7.5,0,13.5-6,13.5-13.5S363.8,75.7,356.3,75.7z
		 M356.3,95.8c-3.7,0-6.6-3-6.6-6.6c0-3.7,3-6.6,6.6-6.6c3.6,0,6.6,3,6.6,6.6C362.9,92.9,360,95.8,356.3,95.8z"/>
	<path class="st18" d="M347,188c-7.5,0-13.5,6.1-13.5,13.5s6,13.5,13.5,13.5c7.5,0,13.5-6,13.5-13.5S354.5,188,347,188z M347,208.1
		c-3.7,0-6.6-3-6.6-6.6c0-3.7,3-6.6,6.6-6.6c3.6,0,6.6,3,6.6,6.6C353.6,205.1,350.7,208.1,347,208.1z"/>
	<path class="st18" d="M80.4,502.5c-7.5,0-13.5,6.1-13.5,13.5s6,13.5,13.5,13.5c7.5,0,13.5-6,13.5-13.5S87.9,502.5,80.4,502.5z
		 M80.4,522.6c-3.7,0-6.6-3-6.6-6.6c0-3.7,3-6.6,6.6-6.6c3.6,0,6.6,3,6.6,6.6C87,519.6,84.1,522.6,80.4,522.6z"/>
	<path class="st18" d="M357.1,708.3c-8.4,0-15.1,6.8-15.1,15.1c0,8.4,6.8,15.1,15.1,15.1c8.4,0,15.1-6.8,15.1-15.1
		C372.2,715.1,365.4,708.3,357.1,708.3z M357.1,730.9c-4.1,0-7.4-3.3-7.4-7.4c0-4.1,3.3-7.4,7.4-7.4c4.1,0,7.4,3.3,7.4,7.4
		C364.5,727.6,361.2,730.9,357.1,730.9z"/>
	<path class="st18" d="M167.8,163.5c-9.7,0-17.6,7.9-17.6,17.6s7.9,17.6,17.6,17.6c9.7,0,17.6-7.9,17.6-17.6
		S177.5,163.5,167.8,163.5z M167.8,189.8c-4.8,0-8.6-3.9-8.6-8.6c0-4.8,3.9-8.6,8.6-8.6c4.8,0,8.6,3.9,8.6,8.6
		C176.4,185.9,172.6,189.8,167.8,189.8z"/>
	<path class="st18" d="M106.7,238.5c-9.7,0-17.6,7.9-17.6,17.6c0,9.7,7.9,17.6,17.6,17.6c9.7,0,17.6-7.9,17.6-17.6
		C124.3,246.4,116.4,238.5,106.7,238.5z M106.7,264.7c-4.8,0-8.6-3.9-8.6-8.6c0-4.8,3.9-8.6,8.6-8.6c4.8,0,8.6,3.9,8.6,8.6
		C115.3,260.9,111.4,264.7,106.7,264.7z"/>
	<path class="st18" d="M80.4,454.5c-9.7,0-17.6,7.9-17.6,17.6c0,9.7,7.9,17.6,17.6,17.6c9.7,0,17.6-7.9,17.6-17.6
		C98,462.4,90.2,454.5,80.4,454.5z M80.4,480.7c-4.8,0-8.6-3.9-8.6-8.6c0-4.8,3.9-8.6,8.6-8.6c4.8,0,8.6,3.9,8.6,8.6
		C89.1,476.9,85.2,480.7,80.4,480.7z"/>
	<path class="st18" d="M362.6,609.7c-11.4,0-20.7,9.3-20.7,20.7s9.3,20.7,20.7,20.7c11.4,0,20.7-9.3,20.7-20.7
		S374,609.7,362.6,609.7z M362.6,640.6c-5.6,0-10.1-4.5-10.1-10.1c0-5.6,4.5-10.1,10.1-10.1c5.6,0,10.1,4.5,10.1,10.1
		C372.8,636,368.2,640.6,362.6,640.6z"/>
	<path class="st18" d="M465.2,599.6c-11.4,0-20.7,9.3-20.7,20.7s9.3,20.7,20.7,20.7c11.4,0,20.7-9.3,20.7-20.7
		S476.6,599.6,465.2,599.6z M465.2,630.4c-5.6,0-10.1-4.5-10.1-10.1c0-5.6,4.5-10.1,10.1-10.1c5.6,0,10.1,4.5,10.1,10.1
		C475.3,625.9,470.8,630.4,465.2,630.4z"/>
	<path class="st18" d="M550.4,606.3c-10.1,0-18.3,8.2-18.3,18.3s8.2,18.3,18.3,18.3c10.1,0,18.3-8.2,18.3-18.3
		S560.5,606.3,550.4,606.3z M550.4,633.5c-4.9,0-9-4-9-9c0-4.9,4-9,9-9c4.9,0,9,4,9,9C559.3,629.5,555.3,633.5,550.4,633.5z"/>
	<path class="st18" d="M661.5,583.7c-10.1,0-18.3,8.2-18.3,18.3c0,10.1,8.2,18.3,18.3,18.3c10.1,0,18.3-8.2,18.3-18.3
		C679.7,591.9,671.6,583.7,661.5,583.7z M661.5,611c-4.9,0-9-4-9-9c0-4.9,4-9,9-9c4.9,0,9,4,9,9C670.4,607,666.4,611,661.5,611z"/>
	<path class="st18" d="M468.6,77.7c-7.5,0-13.5,6.1-13.5,13.5s6,13.5,13.5,13.5c7.5,0,13.5-6,13.5-13.5S476,77.7,468.6,77.7z
		 M468.6,97.8c-3.7,0-6.6-3-6.6-6.6c0-3.7,3-6.6,6.6-6.6c3.6,0,6.6,3,6.6,6.6C475.2,94.8,472.2,97.8,468.6,97.8z"/>
	<path class="st18" d="M623.3,140c-12.2,0-22,9.9-22,22s9.9,22,22,22c12.2,0,22-9.9,22-22S635.4,140,623.3,140z M623.3,172.8
		c-6,0-10.8-4.8-10.8-10.8c0-6,4.8-10.8,10.8-10.8c6,0,10.8,4.8,10.8,10.8C634,167.9,629.2,172.8,623.3,172.8z"/>
	<path class="st18" d="M506,163.5c-11.3,0-20.5,9.2-20.5,20.5s9.2,20.5,20.5,20.5c11.3,0,20.5-9.2,20.5-20.5S517.3,163.5,506,163.5z
		 M506,194.1c-5.5,0-10-4.5-10-10c0-5.5,4.5-10,10-10c5.5,0,10,4.5,10,10C516,189.6,511.5,194.1,506,194.1z"/>
	<circle class="st18" cx="686.1" cy="267.6" r="5.3"/>
	<circle class="st18" cx="260" cy="689.5" r="5.3"/>
	<circle class="st18" cx="303.3" cy="296" r="6.8"/>
	<circle class="st18" cx="449.7" cy="165.2" r="7.6"/>
	<circle class="st18" cx="299.8" cy="260.7" r="9"/>
	<line class="st19" x1="80.4" y1="487.2" x2="80.4" y2="503.2"/>
	<polyline class="st20" points="167.8,194.9 167.8,218.7 209.1,256.1 299.8,256.1 	"/>
	<line class="st20" x1="347" y1="212.4" x2="347" y2="308.1"/>
	<polyline class="st20" points="387.2,253.2 404,253.2 404,299.1 	"/>
	<polyline class="st20" points="500.3,198.7 469.8,230.2 469.8,299.1 	"/>
	<polyline class="st20" points="471.6,100.6 471.6,142.7 449.7,165.2 	"/>
	<polyline class="st20" points="347.4,627.4 319.4,600.5 304.4,600.5 	"/>
	<polyline class="st20" points="465.2,635.8 509.7,684.2 562.1,684.2 562.1,711.8 	"/>
	<line class="st20" x1="550.4" y1="611" x2="550.4" y2="462.4"/>
</g>
</svg>
