<?xml version="1.0" encoding="utf-8"?>
<!-- Generator: Adobe Illustrator 23.0.5, SVG Export Plug-In . SVG Version: 6.00 Build 0)  -->
<svg version="1.1" xmlns="http://www.w3.org/2000/svg" xmlns:xlink="http://www.w3.org/1999/xlink" x="0px" y="0px"
	 viewBox="0 0 726.7 726.7" style="enable-background:new 0 0 726.7 726.7;" xml:space="preserve">
<style type="text/css">
	.st0{fill:#0F1B32;}
	.st1{fill:#FFFFFF;}
	.st2{fill:url(#SVGID_1_);}
	.st3{fill:url(#SVGID_2_);}
	.st4{fill:none;stroke:#4C76A6;stroke-width:7;stroke-linecap:round;stroke-miterlimit:10;}
	.st5{fill:none;stroke:#4C76A6;stroke-width:7;stroke-miterlimit:10;}
	.st6{fill:none;stroke:#4C76A6;stroke-width:7;stroke-linecap:round;stroke-linejoin:round;stroke-miterlimit:10;}
	.st7{fill:none;stroke:#4C76A6;stroke-width:3;stroke-linejoin:round;stroke-miterlimit:10;}
	.st8{fill:#4C76A6;}
	.st9{fill:none;stroke:#4F77A2;stroke-width:7;stroke-linecap:round;stroke-linejoin:round;stroke-miterlimit:10;}
	.st10{fill:#73BEDF;}
	.st11{fill:none;stroke:#73BEDF;stroke-width:9;stroke-linecap:round;stroke-linejoin:round;stroke-miterlimit:10;}
	.st12{fill:none;stroke:#73BEDF;stroke-width:11;stroke-linecap:round;stroke-linejoin:round;stroke-miterlimit:10;}
	.st13{fill:none;stroke:#73BEDF;stroke-width:11;stroke-linejoin:round;stroke-miterlimit:10;}
	.st14{fill:none;stroke:#73BEDF;stroke-width:11;stroke-miterlimit:10;}
	.st15{fill:#DC812E;}
	.st16{fill:none;stroke:#DC812E;stroke-width:9;stroke-linecap:round;stroke-miterlimit:10;}
	.st17{fill:none;stroke:#DC812E;stroke-width:9;stroke-linecap:round;stroke-linejoin:round;stroke-miterlimit:10;}
</style>
<g id="Layer_4">
	<g>
		<circle class="st0" cx="363.4" cy="363.4" r="363.4"/>
	</g>
</g>
<g id="Layer_6">
	<g>
		<rect x="46.1" y="278.6" class="st1" width="143.1" height="36.4"/>
		<linearGradient id="SVGID_1_" gradientUnits="userSpaceOnUse" x1="114.2877" y1="312.1743" x2="114.2877" y2="498.0004">
			<stop  offset="0" style="stop-color:#FFFFFF"/>
			<stop  offset="1" style="stop-color:#D5EFFB"/>
		</linearGradient>
		<rect x="97.3" y="312.2" class="st2" width="34" height="185.8"/>
	</g>
	<g>
		<rect x="337.4" y="277.9" class="st1" width="143.1" height="36.4"/>
		<linearGradient id="SVGID_2_" gradientUnits="userSpaceOnUse" x1="405.6163" y1="311.525" x2="405.6163" y2="497.3511">
			<stop  offset="0" style="stop-color:#FFFFFF"/>
			<stop  offset="1" style="stop-color:#D5EFFB"/>
		</linearGradient>
		<rect x="388.6" y="311.5" class="st3" width="34" height="185.8"/>
	</g>
	<path class="st1" d="M353.1,497.1l-80.9-218.9h-15.8L177,497.1 M265.1,361.3l28.6,75.7h-57.1L265.1,361.3z M214.5,497.1l4.1-11.9
		l5-14.5h82.1l8.5,26.4"/>
	<rect x="583.6" y="278.6" class="st1" width="33.5" height="218.5"/>
	<rect x="480.5" y="342.8" class="st1" width="193.2" height="36.5"/>
	<polygon class="st1" points="480.5,429.3 518.3,396.5 518.3,290.7 480.5,320.6 	"/>
	<path class="st0" d="M313.9,496.8L313.9,496.8C313.9,496.8,313.9,496.8,313.9,496.8C313.9,496.8,313.9,496.8,313.9,496.8
		C313.8,496.8,313.8,496.8,313.9,496.8c-0.5-1-1.6-1.6-2.8-0.9c-0.5,0.3-1.3-0.4-1.8-0.7c-0.9-0.5-1.9-0.9-2.9-1.2
		c-2.2-0.6-4.5-0.8-6.7-0.8c-4.5,0-9,1.4-13.4,0.9c-0.6-0.1-1.1,0.2-1.5,0.7c0,0,0,0,0,0c-2.8-0.3-5.7-0.6-8.5-0.3
		c-1.4,0.2-2.8,0.5-4.2,0.6c-1.4,0.1-2.9,0.1-4.3,0c-2.8-0.1-5.6-0.2-8.4-0.1c-2.9,0.1-5.8,0.2-8.7-0.3c-0.5-0.1-0.9,0-1.2,0.1
		c0,0-0.1,0-0.1,0c-2-0.4-3.9-0.4-5.9-0.4c-2,0-4.1,0-6.1,0c-4.1,0-8.2,0.1-12.3,0.1c-0.8,0-1.4,0.4-1.7,1c0,0,0,0,0,0
		c-0.8-1.1-2.1-1.9-3.9-1.9c-0.8,0-1.6,0.2-2.2,0.5c-0.2,0.1-0.4,0.2-0.6,0.4c0,0,0,0,0,0c-2.7,1.9-2.7,6.5,0,8.4
		c0.8,1,2,1.7,3.7,1.7c3.6,0,5.2-3.1,4.7-5.9c0,0,0,0,0,0c3.9,0,7.9,0,11.8-0.1c1.9,0,3.8,0,5.7,0c1.9,0,3.9-0.2,5.8,0.2
		c0.5,0.1,0.9,0.1,1.3-0.1c0,0,0.1,0,0.1,0c5.8,1.1,11.8,0.2,17.7,0.5c3,0.2,5.7-0.1,8.6-0.6c3-0.4,6-0.1,8.9,0.2
		c0.6,0.1,1.1-0.2,1.5-0.7c0,0,0,0,0,0c2.4,0.3,4.8-0.1,7.1-0.4c2.4-0.3,4.8-0.5,7.2-0.5c2.2,0.1,4.6,0.3,6.6,1.3c2,1,3.9,2,6,0.8
		c0.8-0.5,1-1.2,0.9-1.9C314.2,497.2,314.1,497,313.9,496.8z"/>
</g>
<g id="Layer_5">
	<line class="st4" x1="444.6" y1="342.8" x2="444.6" y2="462.3"/>
	<line class="st4" x1="472.4" y1="443" x2="472.4" y2="546.4"/>
	<line class="st4" x1="342.9" y1="130.5" x2="358.4" y2="144.5"/>
	<polyline class="st4" points="465,55.7 472.3,62.6 472.3,97.9 	"/>
	<line class="st4" x1="587.3" y1="159.4" x2="548.1" y2="200.7"/>
	<line class="st4" x1="544.5" y1="283.1" x2="544.5" y2="318.7"/>
	<line class="st4" x1="369.6" y1="344.6" x2="369.6" y2="456.9"/>
	<line class="st5" x1="153.6" y1="360.8" x2="153.6" y2="465.2"/>
	<polyline class="st6" points="49.8,360.8 76.6,360.8 78.1,522.4 123.7,522.4 160.5,558.5 241.7,558.5 	"/>
	<line class="st7" x1="296.3" y1="279.7" x2="319.9" y2="344.6"/>
	<line class="st7" x1="225.7" y1="307.6" x2="204.7" y2="371.1"/>
	<circle class="st8" cx="554.2" cy="150.6" r="6.1"/>
	<circle class="st8" cx="466.2" cy="194.6" r="6.1"/>
	<circle class="st8" cx="652.2" cy="272.7" r="6.1"/>
	<circle class="st8" cx="151.8" cy="616.1" r="6.1"/>
	<circle class="st8" cx="170.6" cy="181.3" r="6.1"/>
	
		<rect x="87.8" y="180" transform="matrix(0.5583 -0.8296 0.8296 0.5583 -112.8589 159.8436)" class="st8" width="11.7" height="11.7"/>
	
		<rect x="619.4" y="156.1" transform="matrix(0.7635 -0.6458 0.6458 0.7635 43.2592 442.1211)" class="st8" width="11.7" height="11.7"/>
	
		<rect x="562.7" y="216.7" transform="matrix(0.7635 -0.6458 0.6458 0.7635 -9.9512 421.2539)" class="st8" width="15.1" height="15.1"/>
	
		<rect x="220.6" y="520.2" transform="matrix(0.7635 -0.6458 0.6458 0.7635 -286.2775 270.9234)" class="st8" width="12.4" height="12.4"/>
	<rect x="553" y="89.1" transform="matrix(0.7635 -0.6458 0.6458 0.7635 71.4644 382.0142)" class="st8" width="8.7" height="8.7"/>
	<polyline class="st4" points="577.6,524.4 652.7,524.4 652.7,402.5 	"/>
	<polyline class="st4" points="673.3,499.7 673.3,421.4 698.4,407.7 	"/>
	<line class="st4" x1="692" y1="452.2" x2="692" y2="430.8"/>
	<line class="st4" x1="166.7" y1="524.4" x2="195.9" y2="524.4"/>
	<polyline class="st9" points="312,128.8 312,79.5 308.1,74 	"/>
</g>
<g id="Layer_2">
	<path class="st10" d="M277.7,124.6v-10.9l-11.1-3.3c-1.2-3.8-1.7-5.1-2.9-8.9l7.1-9.2c-3.3-4.6-3.1-4.2-6.4-8.8l-10.9,3.9
		c-3.2-2.3-4.4-3.2-7.6-5.5l0.3-11.6c-5.4-1.8-5-1.6-10.4-3.4l-6.5,9.6h-9.4l-6.6-9.6c-5.4,1.8-5,1.6-10.4,3.4l0.3,11.6
		c-3.2,2.3-4.4,3.2-7.6,5.5l-10.9-3.9c-3.3,4.6-3.1,4.2-6.4,8.8l7.1,9.2c-1.2,3.8-1.7,5.1-2.9,8.9l-11.1,3.3c0,5.7,0,5.2,0,10.9
		l11.1,3.3c1.2,3.8,1.7,5.1,2.9,8.9l-7.1,9.2c3.3,4.6,3.1,4.2,6.4,8.8l10.9-3.9c3.2,2.3,4.4,3.2,7.6,5.5L203,168
		c5.4,1.8,5,1.6,10.4,3.4l6.5-9.6c4,0,5.4,0,9.4,0l6.5,9.6c5.4-1.8,5-1.6,10.4-3.4l-0.3-11.6c3.2-2.4,4.4-3.2,7.6-5.5l10.9,3.9
		c3.3-4.6,3.1-4.2,6.4-8.8l-7.1-9.2c1.2-3.8,1.7-5.1,2.9-8.9L277.7,124.6z M227,148.7c-18.3,1.4-33.4-13.7-32-32
		c1.1-14.4,12.8-26,27.2-27.2c18.3-1.4,33.4,13.7,32,32C253,135.9,241.4,147.6,227,148.7z"/>
	<circle class="st10" cx="267.6" cy="50.1" r="7.4"/>
	<circle class="st10" cx="337.4" cy="98.9" r="11.6"/>
	<circle class="st10" cx="372.4" cy="36.6" r="8.8"/>
	<circle class="st10" cx="372.4" cy="89.5" r="8.8"/>
	<circle class="st10" cx="367.6" cy="125.3" r="8.8"/>
	<circle class="st10" cx="366.3" cy="180.2" r="7.3"/>
	<circle class="st10" cx="523.8" cy="82.2" r="16.1"/>
	<circle class="st10" cx="606" cy="197.5" r="16.1"/>
	<circle class="st10" cx="686.3" cy="280.7" r="8.1"/>
	<circle class="st10" cx="192.7" cy="628.4" r="15.9"/>
	<circle class="st10" cx="108.6" cy="565.2" r="15.9"/>
	<circle class="st10" cx="364.9" cy="628.4" r="13.9"/>
	<circle class="st10" cx="583.6" cy="591.1" r="15.2"/>
	<circle class="st10" cx="364.9" cy="565.2" r="7.7"/>
	<circle class="st10" cx="468.2" cy="584.8" r="6.3"/>
	<circle class="st10" cx="551.7" cy="632.9" r="7.6"/>
	<circle class="st10" cx="235.3" cy="617.3" r="5.9"/>
	<circle class="st10" cx="170.6" cy="364.9" r="8.2"/>
	<circle class="st10" cx="174.7" cy="393.4" r="5.8"/>
	<circle class="st10" cx="134.4" cy="223.6" r="7.2"/>
	<circle class="st10" cx="364.9" cy="689.9" r="7.7"/>
	<circle class="st10" cx="396.6" cy="664.3" r="7.7"/>
	<polyline class="st11" points="524.4,91.9 525.6,167.1 471.8,221.3 471.8,256.2 	"/>
	<polyline class="st11" points="376.5,41.6 389.6,54.8 389.6,71.2 376.5,87.2 	"/>
	<polyline class="st11" points="372.4,124.1 400.9,143 400.9,171.4 	"/>
	<polyline class="st11" points="686.3,280.7 652.2,311.6 652.2,323.1 	"/>
	<polyline class="st12" points="583.6,591.1 544,552 544,404.9 	"/>
	<line class="st12" x1="364.9" y1="565.2" x2="364.9" y2="689.9"/>
	<line class="st13" x1="46.1" y1="253.3" x2="189.2" y2="253.3"/>
	<line class="st13" x1="496.3" y1="253.3" x2="673.7" y2="253.3"/>
	<line class="st12" x1="400.9" y1="213.6" x2="400.9" y2="256.2"/>
	<polyline class="st14" points="108.6,565.2 142.1,586.3 250.4,589.4 261.9,600 261.9,618.7 288.1,643.2 324.9,644.3 	"/>
	<polyline class="st12" points="449.4,524.4 265.1,524.4 265.1,492.5 	"/>
	<line class="st12" x1="134.4" y1="223.6" x2="120.3" y2="213.6"/>
	<line class="st12" x1="346.9" y1="76.8" x2="339" y2="95.6"/>
</g>
<g id="Layer_3">
	<path class="st15" d="M318.6,34.7c-7.5,0-13.5,6.1-13.5,13.5s6,13.5,13.5,13.5c7.5,0,13.5-6,13.5-13.5S326,34.7,318.6,34.7z
		 M318.6,54.8c-3.7,0-6.6-3-6.6-6.6c0-3.7,3-6.6,6.6-6.6c3.6,0,6.6,3,6.6,6.6C325.2,51.9,322.2,54.8,318.6,54.8z"/>
	<path class="st15" d="M309.3,147c-7.5,0-13.5,6.1-13.5,13.5s6,13.5,13.5,13.5c7.5,0,13.5-6,13.5-13.5S316.7,147,309.3,147z
		 M309.3,167.1c-3.7,0-6.6-3-6.6-6.6c0-3.7,3-6.6,6.6-6.6c3.6,0,6.6,3,6.6,6.6C315.9,164.1,312.9,167.1,309.3,167.1z"/>
	<path class="st15" d="M42.7,461.4c-7.5,0-13.5,6.1-13.5,13.5s6,13.5,13.5,13.5c7.5,0,13.5-6,13.5-13.5S50.1,461.4,42.7,461.4z
		 M42.7,481.6c-3.7,0-6.6-3-6.6-6.6c0-3.7,3-6.6,6.6-6.6c3.6,0,6.6,3,6.6,6.6C49.3,478.6,46.3,481.6,42.7,481.6z"/>
	<path class="st15" d="M319.3,667.3c-8.4,0-15.1,6.8-15.1,15.1c0,8.4,6.8,15.1,15.1,15.1c8.4,0,15.1-6.8,15.1-15.1
		C334.5,674.1,327.7,667.3,319.3,667.3z M319.3,689.9c-4.1,0-7.4-3.3-7.4-7.4c0-4.1,3.3-7.4,7.4-7.4c4.1,0,7.4,3.3,7.4,7.4
		C326.7,686.5,323.4,689.9,319.3,689.9z"/>
	<path class="st15" d="M130.1,122.5c-9.7,0-17.6,7.9-17.6,17.6c0,9.7,7.9,17.6,17.6,17.6c9.7,0,17.6-7.9,17.6-17.6
		C147.7,130.4,139.8,122.5,130.1,122.5z M130.1,148.7c-4.8,0-8.6-3.9-8.6-8.6c0-4.8,3.9-8.6,8.6-8.6c4.8,0,8.6,3.9,8.6,8.6
		C138.7,144.9,134.8,148.7,130.1,148.7z"/>
	<path class="st15" d="M68.9,197.5c-9.7,0-17.6,7.9-17.6,17.6s7.9,17.6,17.6,17.6c9.7,0,17.6-7.9,17.6-17.6S78.6,197.5,68.9,197.5z
		 M68.9,223.7c-4.8,0-8.6-3.9-8.6-8.6c0-4.8,3.9-8.6,8.6-8.6c4.8,0,8.6,3.9,8.6,8.6C77.5,219.8,73.7,223.7,68.9,223.7z"/>
	<path class="st15" d="M42.7,413.5c-9.7,0-17.6,7.9-17.6,17.6c0,9.7,7.9,17.6,17.6,17.6c9.7,0,17.6-7.9,17.6-17.6
		C60.3,421.4,52.4,413.5,42.7,413.5z M42.7,439.7c-4.8,0-8.6-3.9-8.6-8.6c0-4.8,3.9-8.6,8.6-8.6c4.8,0,8.6,3.9,8.6,8.6
		C51.3,435.8,47.4,439.7,42.7,439.7z"/>
	<path class="st15" d="M324.9,568.7c-11.4,0-20.7,9.3-20.7,20.7c0,11.4,9.3,20.7,20.7,20.7c11.4,0,20.7-9.3,20.7-20.7
		C345.5,578,336.3,568.7,324.9,568.7z M324.9,599.5c-5.6,0-10.1-4.5-10.1-10.1c0-5.6,4.5-10.1,10.1-10.1c5.6,0,10.1,4.5,10.1,10.1
		C335,595,330.5,599.5,324.9,599.5z"/>
	<path class="st15" d="M427.5,558.6c-11.4,0-20.7,9.3-20.7,20.7S416,600,427.5,600c11.4,0,20.7-9.3,20.7-20.7
		S438.9,558.6,427.5,558.6z M427.5,589.4c-5.6,0-10.1-4.5-10.1-10.1c0-5.6,4.5-10.1,10.1-10.1c5.6,0,10.1,4.5,10.1,10.1
		C437.6,584.9,433.1,589.4,427.5,589.4z"/>
	<path class="st15" d="M512.6,565.2c-10.1,0-18.3,8.2-18.3,18.3c0,10.1,8.2,18.3,18.3,18.3c10.1,0,18.3-8.2,18.3-18.3
		C530.9,573.4,522.7,565.2,512.6,565.2z M512.6,592.5c-4.9,0-9-4-9-9c0-4.9,4-9,9-9c4.9,0,9,4,9,9
		C521.6,588.5,517.6,592.5,512.6,592.5z"/>
	<path class="st15" d="M623.7,542.7c-10.1,0-18.3,8.2-18.3,18.3s8.2,18.3,18.3,18.3c10.1,0,18.3-8.2,18.3-18.3
		S633.8,542.7,623.7,542.7z M623.7,570c-4.9,0-9-4-9-9c0-4.9,4-9,9-9c4.9,0,9,4,9,9C632.7,565.9,628.7,570,623.7,570z"/>
	<path class="st15" d="M430.8,36.6c-7.5,0-13.5,6.1-13.5,13.5s6,13.5,13.5,13.5c7.5,0,13.5-6,13.5-13.5S438.3,36.6,430.8,36.6z
		 M430.8,56.7c-3.7,0-6.6-3-6.6-6.6c0-3.7,3-6.6,6.6-6.6c3.6,0,6.6,3,6.6,6.6C437.4,53.8,434.5,56.7,430.8,56.7z"/>
	<path class="st15" d="M585.5,98.9c-12.2,0-22,9.9-22,22s9.9,22,22,22c12.2,0,22-9.9,22-22S597.7,98.9,585.5,98.9z M585.5,131.8
		c-6,0-10.8-4.8-10.8-10.8c0-6,4.8-10.8,10.8-10.8c6,0,10.8,4.8,10.8,10.8C596.3,126.9,591.5,131.8,585.5,131.8z"/>
	<path class="st15" d="M468.2,122.5c-11.3,0-20.5,9.2-20.5,20.5c0,11.3,9.2,20.5,20.5,20.5c11.3,0,20.5-9.2,20.5-20.5
		C488.7,131.7,479.5,122.5,468.2,122.5z M468.2,153c-5.5,0-10-4.5-10-10c0-5.5,4.5-10,10-10c5.5,0,10,4.5,10,10
		C478.3,148.5,473.8,153,468.2,153z"/>
	<circle class="st15" cx="648.3" cy="226.6" r="5.3"/>
	<circle class="st15" cx="222.3" cy="648.4" r="5.3"/>
	<circle class="st15" cx="265.5" cy="254.9" r="6.8"/>
	<circle class="st15" cx="411.9" cy="124.1" r="7.6"/>
	<circle class="st15" cx="262.1" cy="219.6" r="9"/>
	<line class="st16" x1="42.7" y1="446.2" x2="42.7" y2="462.2"/>
	<polyline class="st17" points="130.1,153.9 130.1,177.7 171.4,215.1 262.1,215.1 	"/>
	<line class="st17" x1="309.3" y1="171.4" x2="309.3" y2="267.1"/>
	<polyline class="st17" points="349.5,212.1 366.3,212.1 366.3,258.1 	"/>
	<polyline class="st17" points="462.5,157.7 432.1,189.2 432.1,258.1 	"/>
	<polyline class="st17" points="433.9,59.6 433.9,101.7 411.9,124.1 	"/>
	<polyline class="st17" points="309.6,586.3 281.6,559.5 266.6,559.5 	"/>
	<polyline class="st17" points="427.5,594.8 472,643.2 524.3,643.2 524.3,670.8 	"/>
	<line class="st17" x1="512.6" y1="570" x2="512.6" y2="421.4"/>
</g>
</svg>
